<svg class="main-logo__svg" viewBox="0 0 465.145 48.568">
  <path d="M436.74 12.386c-4.73 0-8.362 1.946-11.408 5.512-1.816-3.503-5.253-5.512-9.794-5.512-4.99 0-7.972 2.658-10.242 5.575v-4.92h-9.857v34.75h9.85V28.4c0-4.67 2.27-7.07 5.96-7.07s5.77 2.4 5.77 7.07v19.39h9.86V28.4c0-4.67 2.26-7.07 5.96-7.07s5.77 2.4 5.77 7.07v19.39h9.853V25.16c0-8.365-4.41-12.774-11.74-12.774zM378.17.454h9.856V47.79h-9.857zm-31.547 12.97v-1.362c0-2.592 1.294-3.762 3.564-3.762 1.684 0 3.046.325 4.472.845V.975C352.84.39 350.77 0 347.65 0c-3.5 0-6.16.908-7.972 2.724-1.815 1.816-2.792 4.604-2.792 8.43v2.203h-4.08v8.107h4.08v26.324h9.857V21.464h13.684"/>
  <path d="M332.81 13.424h27.624v8.04H332.81z"/>
  <circle cx="365.358" cy="5.046" r="4.592"/>
  <path d="M360.435 47.79h9.85V13.423h-9.85"/>
  <path d="M360.435 47.79h9.85V13.423h-9.85"/>
  <path d="M360.435 47.79h9.85V13.423h-9.85"/>
  <circle class="main-logo__svg-dot" cx="460.553" cy="43.196" r="4.592"/>
  <path d="M312.812 13.553c-9.27 0-16.082 7.78-16.082 17.507 0 10.438 7.523 17.507 16.73 17.507 6.352 0 10.44-2.53 13.813-6.29l-3.115-2.79c-2.724 2.855-5.966 4.734-10.57 4.734-5.897 0-11.087-4.08-11.8-11.15h26.583c.07-.77.07-1.29.07-1.75 0-9.85-5.7-17.76-15.62-17.76zM301.788 29.05c.713-6.484 5.12-11.28 10.892-11.28 6.615 0 10.116 5.186 10.702 11.28h-21.594zM278.03 42.082l-11.283-27.816h-5.512l14.525 33.782h4.408l14.588-33.782h-5.38"/>
  <circle cx="252.302" cy="5.034" r="2.924"/>
  <path d="M249.805 14.266h4.995V47.79h-4.995zM231.75 4.15h-4.99v10.116h-4.667v4.41h4.667v20.23c0 6.81 4.086 9.467 9.466 9.467 2.397 0 4.277-.517 6.03-1.425v-4.28c-1.754.843-3.18 1.168-4.864 1.168-3.374 0-5.644-1.492-5.644-5.578V18.674h10.64v-4.41h-10.64V4.15zM190.615.454V47.79h4.995V.454m21.286 14.648h-6.225l-15.06 15.31 16.83 17.378h6.23L201.6 30.41m-34.03-16.663c-4.927 0-8.496 1.167-12.19 2.85l1.492 4.087c3.11-1.428 6.225-2.4 10.18-2.4 6.287 0 9.92 3.112 9.92 9.078V28.4c-2.984-.845-5.967-1.428-10.25-1.428-8.49 0-14.33 3.762-14.33 10.958 0 7.003 6.227 10.57 12.515 10.57 5.903 0 9.73-2.722 12.064-5.705v4.992h4.93v-20.49c0-4.28-1.16-7.52-3.5-9.855-2.39-2.398-6.09-3.694-10.83-3.694zm9.465 21.72c0 5.318-4.993 9.013-11.15 9.013-4.54 0-8.43-2.46-8.43-6.677 0-4.15 3.57-6.872 9.793-6.872 4.08 0 7.323.72 9.788 1.43v3.12zm-46.72-21.914c-10.116 0-17.507 8.04-17.507 17.507 0 9.596 7.328 17.507 17.38 17.507 10.112 0 17.572-8.04 17.572-17.507 0-9.596-7.394-17.507-17.446-17.507zm0 30.54c-7.07 0-12.386-5.837-12.386-13.033 0-7.2 4.99-13.1 12.26-13.1 7.06 0 12.44 5.9 12.44 13.1 0 7.196-5.06 13.033-12.32 13.033zM100.14 14.266h4.994V47.79h-4.995z"/>
  <circle cx="102.636" cy="5.034" r="2.924"/>
  <path d="M86.634 20.686c-2.592-3.762-6.615-7.133-12.84-7.133-8.04 0-16.013 6.483-16.013 17.44 0 11.154 7.98 17.507 16.02 17.507 6.16 0 10.12-3.432 12.84-7.45v6.74h5V.455h-5v20.232zm-11.932 23.34c-6.35 0-11.8-5.054-11.8-12.966 0-8.236 5.317-13.033 11.8-13.033 6.225 0 12.127 5.187 12.127 12.904 0 7.85-5.91 13.1-12.13 13.1zM37.3 13.748c-4.925 0-8.494 1.167-12.19 2.85l1.494 4.087c3.11-1.428 6.225-2.4 10.18-2.4 6.287 0 9.92 3.112 9.92 9.078V28.4c-2.984-.845-5.967-1.428-10.25-1.428-8.49 0-14.328 3.762-14.328 10.958 0 7.003 6.225 10.57 12.518 10.57 5.897 0 9.725-2.722 12.06-5.705v4.992h4.925v-20.49c0-4.28-1.17-7.52-3.5-9.855-2.4-2.398-6.1-3.694-10.83-3.694zm9.467 21.72c0 5.318-4.995 9.013-11.15 9.013-4.54 0-8.433-2.46-8.433-6.67 0-4.15 3.57-6.87 9.794-6.87 4.08 0 7.323.72 9.79 1.43v3.116zM4.995 23.02v-8.755H0v33.523h4.995V34.43c0-10.115 5.966-15.365 13.294-15.365h.38v-5.383c-6.35-.258-11.22 3.762-13.68 9.337z"/>
</svg>