<svg version="1.1" id="Слой_1" xmlns="http://www.w3.org/2000/svg" x="0" y="0" viewBox="0 0 512 316.9" style="enable-background:new 0 0 512 316.9" xml:space="preserve">
  <path class="st0" d="M503.4 254.2H8.6c-3.3 0-6-2.8-6-6.3v-43.4c92.8-31.2 184.6-49.1 273.6-52.8-9.4 11.9-23.8 22.4-33.7 31.6 13.2-9.3 29.4-19 41.5-23.3 11.4-4 17.2-1.7 25.8 6.5 17 16.1 32 45.3 48.1 65.2-13.7-26.8-32-53.5-37.4-73.9-.6-2.4-1-4.6-1.2-6.8 65.2.6 128.8 9 190.1 25.6v71.3c0 3.4-2.7 6.3-6 6.3M8.6 2.7h494.9c3.3 0 6 2.8 6 6.3v145.1c-64.1-11.5-127-16.8-188-16.1 1.1-2.6 2.6-5.2 4.5-7.8 9.6-12.9 26.9-24.1 37.4-33.5-21.9 13.6-45.2 31.1-58 29.5-8.6-1.1-15.2-7.2-21.9-15.8-4.1-5.2-7.9-11.3-13.1-17.8 4.5 9.2 10.8 21.5 13.1 32.4 1 5.2.9 9.9-.4 14.4-99.3 5.4-193.6 27.1-280.4 64.5V9.1c-.1-3.5 2.6-6.4 5.9-6.4M503.4 0H8.6C3.8 0 0 4.1 0 9.1v238.8c0 5 3.8 9.1 8.6 9.1h494.9c4.7 0 8.6-4.1 8.6-9.1V9.1c-.1-5-3.9-9.1-8.7-9.1"/>
  <path class="st0" d="M349.6 132.8c-.5-1.4-.8-4.6-.8-9.5v-9.6c-7.3 5.9-14.8 12.3-19.8 19-.4.5-.7 1-1 1.5 7.5 0 15.1 0 22.7.1-.5-.3-.9-.8-1.1-1.5M81.3 131.3h17.3v-21.7H81.3V60.7h19.4V37.9H53.3v142.4c9.3-3.2 18.6-6.3 28.1-9.2l-.1-39.8zM191.7 145.3V129h-17V37.9h-28l.5 115.8c14.7-3.2 29.6-6 44.5-8.4M135.5 37.9h-28v125.6c9.3-2.5 18.7-4.9 28.2-7.1l-.2-118.5zM223 76.6l8.7 63.2c6.9-.8 13.8-1.5 20.8-2.1l8-62.8V137c6.5-.5 13-.9 19.5-1.3.2-1.4.4-2.8.4-4.2 0-1.8-.2-3.7-.6-5.7-2-9.6-10.3-24.8-12.7-31.4-2.4-6.6 4.3-7.4 6.4-4.5 2.1 2.9 7.6 10.3 7.6 10.3s2.3 3.2 3.9 5.4V37.9h-36.5L242 91.1l-3.9-29c-1.2-9.3-2.3-17.4-3.4-24.2h-36.2v106.3c8.1-1.2 16.3-2.4 24.5-3.4V76.6zM424.9 63.4l3.5 47.8h-7.1l3.6-47.8zm-5 67.9h10l.5 7.9c9.4 1 18.8 2 28.2 3.2L444 37.9h-40.5L391.3 136c9.3.6 18.7 1.3 28.1 2.2l.5-6.9zM365.9 99.8c-2.1 2-6.3 5.3-9.1 7.5v14.5c0 5.7-.2 9.3-.8 10.8-.3.8-.8 1.4-1.5 1.8 9.5.2 19 .6 28.6 1.1.4-1.1.7-2.2.9-3.4.5-3.5.8-9.6.8-18.2v-76h-28v58.3c1.5-.9 3-1.9 4.6-2.9 6.7-4.4 9.2 2.8 4.5 6.5M348.2 101.6s.2-.2.6-.4V37.9h-28v67.4c0 4.9 0 9.1.1 12.7 8.2-4 17.8-10.3 27.3-16.4M66.4 304.3h8.5v5.3c-1.5 1.2-3.9 2.2-6.6 2.2-5.7 0-9.4-4.1-9.4-10.5 0-6 3.9-10.5 9-10.5 3.6 0 5.6 1.4 7.2 2.8l1.2 1.1 3.3-4-1.2-1.1c-3.1-2.7-6.2-3.9-10.3-3.9-8.8 0-14.1 7.9-14.1 15.6 0 9.2 5.9 15.6 14.3 15.6 4 0 8-1.6 11-4.5l.5-.5v-12.8H66.4v5.2zM155.9 300.2v-8.9h7.2c1.7 0 5.8.4 5.8 4.3 0 3.4-3 4.6-5.9 4.6h-7.1zm17.9-4.6c0-2.4-.8-4.6-2.4-6.2-1.9-2-4.8-3.1-8.3-3.1h-12.2v30.2h5v-11.2h6l8.1 11.2h6.3l-8.9-12.1c4-1.4 6.4-4.6 6.4-8.8M257.8 311.9c-5.3 0-9.3-4.5-9.3-10.5s4-10.5 9.3-10.5c5.3 0 9.3 4.5 9.3 10.5s-4 10.5-9.3 10.5m0-26.1c-8.1 0-14.4 6.8-14.4 15.6 0 8.9 6.2 15.6 14.3 15.6 8.1 0 14.4-6.8 14.4-15.6 0-8.9-6.1-15.6-14.3-15.6M361.4 303.6c0 5.4-2.4 8.2-6.9 8.2-4.6 0-7.1-3-7.1-8.4v-17.2h-5v17.4c0 8.1 4.7 13.3 12 13.3 7.4 0 12-5.2 12-13.5v-17.2h-5v17.4zM448.2 301.3h-5.4v-10h5.7c2.3 0 6.2.6 6.2 4.9-.1 3.8-3.4 5.1-6.5 5.1m.3-15h-10.8v30.2h5v-10.1h5.3c6.8 0 11.5-4.2 11.5-10.2 0-6-4.3-9.9-11-9.9"/>
</svg>