<svg xmlns="http://www.w3.org/2000/svg" width="177" height="25" xml:space="preserve">
  <path fill="#1D1D1B" d="m6.769 14.728-2.296.009.041 7.889H0V2.374h6.216c4.541-.027 7.541 1.506 7.563 6.099.026 4.511-2.932 6.229-7.01 6.255zM6.31 5.389l-1.882.01.032 6.241 1.958-.009c1.551-.007 2.703-.943 2.694-3.135-.011-2.193-1.073-3.114-2.802-3.107zM41.556 22.729c-5.703.026-8.4-2.976-8.435-10.2-.04-7.092 3.299-10.206 8.328-10.232 5.521-.027 8.403 3.312 8.436 10.146.039 7.403-3.147 10.257-8.329 10.286zm-.245-17.544c-2.609.016-3.653 2.058-3.623 7.372.024 5.571 1.532 7.241 3.672 7.231 2.551-.016 3.99-1.696 3.961-7.269-.03-5.418-1.637-7.344-4.01-7.334zM63.403 22.626s-3.468-6.519-5.65-10.48c-.315-.595-.97-2.033-.97-2.033s-.002 1.522 0 2.164c.023 3.926 0 10.349 0 10.349h-3.878V2.393h3.949s3.567 6.543 5.803 10.658c.26.49.863 2.084.863 2.084s-.162-1.599-.166-2.111c-.021-4.101 0-10.63 0-10.63h3.995v20.233h-3.946zM79.284 5.644v16.982H74.96V5.644h-4.582v-3.25h13.377v3.25h-4.471zM26.963 22.626c-1.142-.533-.276-8.234-3.788-8.234l-1.937.009.043 8.225H16.77V2.393h6.934c4.514-.022 6.871 2.028 6.89 5.878.016 3.037-1.877 4.299-3.922 4.299 3.535 0 3.572 9.164 4.461 10.055h-4.17zM22.406 5.447l-1.212.004.034 5.699 1.722-.005c1.965-.01 3.119-.66 3.11-2.828-.011-2.012-1.358-2.883-3.654-2.87zM124.118 5.838l.026 5.044h6.679v3.386h-6.622v8.253h-4.444V2.479h11.65l.014 3.359h-7.303zM134.633 22.521V2.479h4.453v20.042h-4.453zM142.595 22.521V2.479h4.296v16.365h7.229v3.678h-11.525zM172.583 22.521s.025-7.471 0-12.077c-.006-1.286 0-3.295 0-3.295s-.477 2.32-.705 3.299c-1.056 4.608-2.745 12.074-2.745 12.074h-4.624s-1.712-7.5-2.836-12.151c-.214-.924-.69-3.161-.69-3.161s-.006 1.928 0 3.162c.026 4.656 0 12.149 0 12.149h-3.984V2.479h6.274s1.792 7.331 2.893 11.956c.234.979.632 3.314.632 3.314s.351-2.339.575-3.316a5546.012 5546.012 0 0 0 2.819-11.955h6.351V22.52h-3.96z"/>
  <radialGradient id="a" cx="96.218" cy="12.5" r="4.08" gradientUnits="userSpaceOnUse">
    <stop offset=".462" style="stop-color:#009990"/>
    <stop offset="1" style="stop-color:#009ee2"/>
  </radialGradient>
  <circle fill="none" stroke="url(#a)" stroke-width="1.8" stroke-miterlimit="10" cx="96.218" cy="12.5" r="3.181"/>
  <radialGradient id="b" cx="96.218" cy="12.5" r="7.929" gradientUnits="userSpaceOnUse">
    <stop offset=".462" style="stop-color:#009990"/>
    <stop offset="1" style="stop-color:#009ee2"/>
  </radialGradient>
  <circle fill="none" stroke="url(#b)" stroke-width="1.8" stroke-miterlimit="10" cx="96.218" cy="12.5" r="7.029"/>
  <radialGradient id="c" cx="96.218" cy="12.5" r="11.838" gradientUnits="userSpaceOnUse">
    <stop offset=".462" style="stop-color:#009990"/>
    <stop offset="1" style="stop-color:#009ee2"/>
  </radialGradient>
  <circle fill="none" stroke="url(#c)" stroke-width="1.8" stroke-miterlimit="10" cx="96.218" cy="12.5" r="10.938"/>
</svg>