<svg aria-hidden="true" style="position:absolute;width:0;height:0" xmlns="http://www.w3.org/2000/svg" overflow="hidden">
  <defs>
    <symbol id="logo" viewBox="0 0 21 32">
      <path d="M2.667 1.333H4v1.333h13.333V1.333h1.333V16h-1.333v-1.333H4V16H2.667V1.333zm1.333 3V5c0 .184.149.333.333.333H5A.333.333 0 0 0 5.333 5v-.667A.333.333 0 0 0 5 4h-.667A.333.333 0 0 0 4 4.333zM4 7v.667c0 .184.149.333.333.333H5a.333.333 0 0 0 .333-.333V7A.333.333 0 0 0 5 6.667h-.667A.333.333 0 0 0 4 7zm0 2.667v.667c0 .184.149.333.333.333H5a.333.333 0 0 0 .333-.333v-.667A.333.333 0 0 0 5 9.334h-.667A.333.333 0 0 0 4 9.667zm0 2.666V13c0 .184.149.333.333.333H5A.333.333 0 0 0 5.333 13v-.667A.333.333 0 0 0 5 12h-.667a.333.333 0 0 0-.333.333zm13.333-8A.333.333 0 0 0 17 4h-.667a.333.333 0 0 0-.333.333V5c0 .184.149.333.333.333H17A.333.333 0 0 0 17.333 5v-.667zm0 2.667A.333.333 0 0 0 17 6.667h-.667A.333.333 0 0 0 16 7v.667c0 .184.149.333.333.333H17a.333.333 0 0 0 .333-.333V7zm0 2.667A.333.333 0 0 0 17 9.334h-.667a.333.333 0 0 0-.333.333v.667c0 .184.149.333.333.333H17a.333.333 0 0 0 .333-.333v-.667zm0 2.666A.333.333 0 0 0 17 12h-.667a.333.333 0 0 0-.333.333V13c0 .184.149.333.333.333H17a.333.333 0 0 0 .333-.333v-.667zM1.333 18c0-.368.298-.667.667-.667h17.333c.368 0 .667.299.667.667v2a.667.667 0 0 1-.667.667h-3.057l-4.667 4.667 5.333 5.333h-1.886l-4.391-4.391-4.391 4.391H4.388l5.333-5.333-4.667-4.667H1.997A.667.667 0 0 1 1.33 20v-2zm5.61 2.667 3.724 3.724 3.724-3.724H6.943z"/>
    </symbol>
    <symbol id="play_youtube" viewBox="0 0 46 32">
      <path d="M39.111 0.356h-32c-3.732 0-6.756 3.024-6.756 6.756v17.778c0 3.732 3.024 6.756 6.756 6.756h32c3.732 0 6.756-3.024 6.756-6.756v-17.778c0-3.732-3.024-6.756-6.756-6.756zM18.133 23.111v-14.222l12.089 7.111-12.089 7.111z"></path>
    </symbol>
    <symbol id="play_youtube_2" viewBox="0 0 32 32">
      <path d="M30.662 5.003C26.174 4.358 21.214 4 16 4S5.826 4.358 1.338 5.003C.478 8.369 0 12.089 0 16s.477 7.63 1.338 10.997C5.827 27.642 10.786 28 16 28s10.174-.358 14.662-1.003C31.522 23.631 32 19.911 32 16s-.477-7.63-1.338-10.997zM12 22V10l10 6-10 6z"/>
    </symbol>
    <symbol id="play_1" viewBox="0 0 459 459">
      <path d="M229.5 0C102.751 0 0 102.751 0 229.5S102.751 459 229.5 459 459 356.249 459 229.5 356.249 0 229.5 0zm80.792 239.651-111.764 76.084a12.281 12.281 0 0 1-19.19-10.151V153.416a12.281 12.281 0 0 1 19.19-10.151l111.764 76.084a12.28 12.28 0 0 1 0 20.302z"/>
    </symbol>
    <symbol id="play_2" viewBox="0 0 32 32">
      <path d="m6 4 20 12L6 28z"/>
    </symbol>
  </defs>
</svg>
