<svg aria-hidden="true" style="position: absolute; width: 0; height: 0; overflow: hidden;" version="1.1" xmlns="http://www.w3.org/2000/svg" xmlns:xlink="http://www.w3.org/1999/xlink">
  <defs>
    <symbol id="logo" viewBox="0 0 21 32">
      <path d="M2.667 1.333h1.333v1.333h13.333v-1.333h1.333v14.667h-1.333v-1.333h-13.333v1.333h-1.333v-14.667zM4 4.333v0.667c0 0.184 0.149 0.333 0.333 0.333h0.667c0.184 0 0.333-0.149 0.333-0.333v-0.667c0-0.184-0.149-0.333-0.333-0.333h-0.667c-0.184 0-0.333 0.149-0.333 0.333zM4 7v0.667c0 0.184 0.149 0.333 0.333 0.333h0.667c0.184 0 0.333-0.149 0.333-0.333v-0.667c0-0.184-0.149-0.333-0.333-0.333h-0.667c-0.184 0-0.333 0.149-0.333 0.333zM4 9.667v0.667c0 0.184 0.149 0.333 0.333 0.333h0.667c0.184 0 0.333-0.149 0.333-0.333v-0.667c0-0.184-0.149-0.333-0.333-0.333h-0.667c-0.184 0-0.333 0.149-0.333 0.333zM4 12.333v0.667c0 0.184 0.149 0.333 0.333 0.333h0.667c0.184 0 0.333-0.149 0.333-0.333v-0.667c0-0.184-0.149-0.333-0.333-0.333h-0.667c-0.184 0-0.333 0.149-0.333 0.333zM17.333 4.333c0-0.184-0.149-0.333-0.333-0.333h-0.667c-0.184 0-0.333 0.149-0.333 0.333v0.667c0 0.184 0.149 0.333 0.333 0.333h0.667c0.184 0 0.333-0.149 0.333-0.333v-0.667zM17.333 7c0-0.184-0.149-0.333-0.333-0.333h-0.667c-0.184 0-0.333 0.149-0.333 0.333v0.667c0 0.184 0.149 0.333 0.333 0.333h0.667c0.184 0 0.333-0.149 0.333-0.333v-0.667zM17.333 9.667c0-0.184-0.149-0.333-0.333-0.333h-0.667c-0.184 0-0.333 0.149-0.333 0.333v0.667c0 0.184 0.149 0.333 0.333 0.333h0.667c0.184 0 0.333-0.149 0.333-0.333v-0.667zM17.333 12.333c0-0.184-0.149-0.333-0.333-0.333h-0.667c-0.184 0-0.333 0.149-0.333 0.333v0.667c0 0.184 0.149 0.333 0.333 0.333h0.667c0.184 0 0.333-0.149 0.333-0.333v-0.667zM1.333 18c0-0.368 0.298-0.667 0.667-0.667h17.333c0.368 0 0.667 0.299 0.667 0.667v2c0 0.368-0.299 0.667-0.667 0.667h-3.057l-4.667 4.667 5.333 5.333h-1.886l-4.391-4.391-4.391 4.391h-1.886l5.333-5.333-4.667-4.667h-3.057c-0.368 0-0.667-0.299-0.667-0.667v-2zM6.943 20.667l3.724 3.724 3.724-3.724h-7.448z"></path>
    </symbol>
  </defs>
</svg>
