<svg aria-hidden="true" style="position:absolute;width:0;height:0;overflow:hidden" xmlns="http://www.w3.org/2000/svg">
  <defs>
    <symbol id="logo_light" viewBox="0 0 32 32">
      <path fill="#fff" style="fill:var(--color1, #fff)" d="M1.333 0h29.333c.736 0 1.333.597 1.333 1.333v29.333c0 .736-.597 1.333-1.333 1.333H1.333A1.333 1.333 0 0 1 0 30.666V1.333C0 .597.597 0 1.333 0z"/>
      <path style="fill:var(--color2, #000)" d="M2 1.333h1.333c.368 0 .667.298.667.667v1.333A.667.667 0 0 1 3.333 4H2a.667.667 0 0 1-.667-.667V2c0-.368.298-.667.667-.667zM2 28h1.333c.368 0 .667.298.667.667V30a.667.667 0 0 1-.667.667H2A.667.667 0 0 1 1.333 30v-1.333c0-.368.298-.667.667-.667zM7.333 1.333h1.333c.368 0 .667.298.667.667v1.333A.667.667 0 0 1 8.666 4H7.333a.667.667 0 0 1-.667-.667V2c0-.368.298-.667.667-.667zM7.333 28h1.333c.368 0 .667.298.667.667V30a.667.667 0 0 1-.667.667H7.333A.667.667 0 0 1 6.666 30v-1.333c0-.368.298-.667.667-.667zM12.667 1.333H14c.368 0 .667.298.667.667v1.333A.667.667 0 0 1 14 4h-1.333A.667.667 0 0 1 12 3.333V2c0-.368.298-.667.667-.667zM12.667 28H14c.368 0 .667.298.667.667V30a.667.667 0 0 1-.667.667h-1.333A.667.667 0 0 1 12 30v-1.333c0-.368.298-.667.667-.667zM18 1.333h1.333c.368 0 .667.298.667.667v1.333a.667.667 0 0 1-.667.667H18a.667.667 0 0 1-.667-.667V2c0-.368.298-.667.667-.667zM18 28h1.333c.368 0 .667.298.667.667V30a.667.667 0 0 1-.667.667H18a.667.667 0 0 1-.667-.667v-1.333c0-.368.298-.667.667-.667zM23.333 1.333h1.333c.368 0 .667.298.667.667v1.333a.667.667 0 0 1-.667.667h-1.333a.667.667 0 0 1-.667-.667V2c0-.368.298-.667.667-.667zM23.333 28h1.333c.368 0 .667.298.667.667V30a.667.667 0 0 1-.667.667h-1.333a.667.667 0 0 1-.667-.667v-1.333c0-.368.298-.667.667-.667zM28.667 1.333H30c.368 0 .667.298.667.667v1.333A.667.667 0 0 1 30 4h-1.333A.667.667 0 0 1 28 3.333V2c0-.368.298-.667.667-.667zM28.667 28H30c.368 0 .667.298.667.667V30a.667.667 0 0 1-.667.667h-1.333A.667.667 0 0 1 28 30v-1.333c0-.368.298-.667.667-.667zM5.551 14.147l-.027.107a3.176 3.176 0 0 0-.12.047c-.04.013-.167.051-.38.113a5.35 5.35 0 0 1-1.447.213h-.173a1.722 1.722 0 0 0-.173-.013c-.351 0-.647-.044-.887-.133-.236-.089-.464-.224-.687-.407s-.333-.438-.333-.767c0-.116.029-.3.087-.553s.233-.522.527-.807a3.373 3.373 0 0 1 1.013-.687c.382-.173.671-.289.867-.347.2-.062.444-.122.733-.18l.18-.033.093.087.027-.14.04-.14.113-.473.027-.073.02-.06.04-.053.033-.013.047-.013.033-.013.04-.007.04.027.127.16c-.04.129-.073.258-.1.387a8.131 8.131 0 0 0-.067.673l-.013.22-.007.16v.167l-.033.033a.222.222 0 0 1-.113.08.46.46 0 0 1-.16-.027.657.657 0 0 1-.14-.1v-.273c0-.093.007-.196.02-.307a5.993 5.993 0 0 0-.733.247 5.717 5.717 0 0 0-.793.4c-.302.173-.56.356-.773.547-.213.187-.4.398-.56.633s-.24.436-.24.6c0 .213.138.364.413.453.28.084.491.14.633.167.147.022.298.033.453.033.213.022.442.033.687.033.533 0 1.04-.056 1.52-.167l.06.027.027.033.02.053.02.033.02.053zM8.138 9.72c-.52.147-.918.409-1.193.787-.16.293-.138.562.067.807-.027.196.022.351.147.467.071-.133.164-.2.28-.2.427.12.807.056 1.14-.193.391-.236.662-.536.813-.9 0-.302-.151-.464-.453-.487-.196-.24-.462-.333-.8-.28zm-.42.427c.156-.027.209.027.16.16l-.327.32-.127.127a.716.716 0 0 1-.173.187h-.113c-.031-.391.162-.656.58-.793zm1.1.066c.347.009.424.196.233.56a1.377 1.377 0 0 1-.513.38c-.329.124-.64.156-.933.093l.007-.147c.311-.48.713-.776 1.207-.887zm-1.18 2.02a.965.965 0 0 0-.067.173c0 .04-.004.091-.013.153a.882.882 0 0 0-.027.24l-.013.147-.007.093-.013.093v.073a8.65 8.65 0 0 1-.027.227 2.999 2.999 0 0 0-.007.167v.173l-.013.153.013.573.053.16c.093.098.196.142.307.133a.528.528 0 0 0 .113-.127v-.033a.94.94 0 0 0 .013-.267v-.64l-.013-.067a.936.936 0 0 0-.013-.167l-.013-.54-.02-.033v-.08l-.013-.04v-.113c0-.133-.011-.242-.033-.327a.45.45 0 0 0-.187-.147l-.02.02zm5.222-2.36a.445.445 0 0 0-.02.36l.02.093.047.153.02.113.113.453.047.107.087.36c.062.271.109.458.14.56.013.098.029.173.047.227l.02.16.02.167c0 .062.007.216.02.46l-.02.38-.087.313-.187-.267-.06-.107-.247-.32a1.233 1.233 0 0 0-.16-.22l-.133-.227a2.543 2.543 0 0 1-.207-.32 39.593 39.593 0 0 0-.22-.333l-.073-.113a1.017 1.017 0 0 0-.173-.267l-.093-.133-.047-.073-.2-.267a.726.726 0 0 0-.313-.227 1.026 1.026 0 0 0-.247.313 1.517 1.517 0 0 1-.113.32 6.267 6.267 0 0 1-.16.513l-.047.18-.02.113-.047.36-.02.16-.027.153-.02.133c-.013.089-.02.164-.02.227l-.047.38-.013.473a.914.914 0 0 0 .1.34c.093.12.184.209.273.267a.38.38 0 0 0 .247-.2c.062-.178.093-.329.093-.453l.02-.087.02-.72c0-.12.009-.224.027-.313v-.067c.013-.36.08-.72.2-1.08l.18.2.193.4c.08.142.136.242.167.3l.18.333.087.18.073.18.153.247c.2.4.46.691.78.873.422-.133.696-.424.82-.873.267-1.587-.124-2.882-1.173-3.887zm4.8.12c-.129 0-.24.007-.333.02l-.213.027a1.81 1.81 0 0 1-.38.047c-.031.013-.062.02-.093.02s-.067.004-.107.013l-.173.04-.14.02-.22.047c-.204 0-.393.033-.567.1.222.218.467.36.733.427a2.08 2.08 0 0 1-.333 1.107.602.602 0 0 0-.373.167c.08.502-.007.998-.26 1.487.156 1.516 1.164 1.578 3.027.187a.72.72 0 0 0-.213-.3c-.129 0-.24.007-.333.02l-.093.02a.998.998 0 0 0-.36.14l-.207.107a1.676 1.676 0 0 1-1.067.2c.018-.676.144-1.187.38-1.533l.593-.04c.44.044.818.002 1.133-.127a.745.745 0 0 0-.02-.3.668.668 0 0 0-.167-.047h-.62a3.053 3.053 0 0 1-.74-.053c.067-.236.133-.487.2-.753l.093-.213 1.16-.047.073-.02a.548.548 0 0 0 .187-.027 2.02 2.02 0 0 0 .587-.12.316.316 0 0 0-.02-.213l-.353-.353-.193-.047-.493-.027-.093.027zm2.794-.046-.08.18c-.071.178-.16.489-.267.933l-.027.107-.027.133-.107.64-.087.727c-.138.707-.111 1.316.08 1.827.129.116.229.118.3.007l.027-.053.107-.4c.018-.107.036-.222.053-.347s.027-.249.027-.373v-.08c.018-.107.036-.347.053-.72l.027-.213.027-.16.053-.427.027-.153c.085-.302.191-.287.32.047l.16.48.16.533.133.4c.089.302.187.587.293.853l.08.187c.151.387.28.611.387.673.107.067.191.002.253-.193.049-.138.085-.289.107-.453l.027-.187c.018-.111.036-.236.053-.373.018-.231.031-.373.04-.427s.018-.138.027-.253c.009-.116.022-.253.04-.413l.027-.187.053-.48c.08-.36.18-.416.3-.167l.073.247.113.507c.316 1.973.753 3.067 1.313 3.28.56.218.776.253.647.107l-.207-.24-.08-.107-.32-.453a4.427 4.427 0 0 1-.54-1.36 10.286 10.286 0 0 1-.233-1.12l-.027-.107-.08-.293a28.888 28.888 0 0 0-.587-1.707l-.08-.187c-.267-.587-.515-.329-.747.773l-.08.293-.08.4-.107.94c-.013.658-.095.66-.247.007l-.127-.467a3.18 3.18 0 0 0-.187-.587 5.189 5.189 0 0 1-.133-.4c-.213-.533-.342-.84-.387-.92s-.107-.182-.187-.307c-.133-.156-.253-.144-.36.033zm10.389 4.48-.087.113a.572.572 0 0 1-.247-.1l-.027-.073-.033-.073c-.035-.102-.064-.178-.087-.227s-.062-.124-.12-.227l-.04-.06-.207-.333-.08-.133-.24.013-.193.007c-.164 0-.358.016-.58.047s-.567.078-1.033.14c-.462.062-.933.149-1.413.26l-.007.02-.033.08a.91.91 0 0 0-.1.353c0 .093.04.204.12.333l.06.093a.263.263 0 0 1-.053.167.335.335 0 0 1-.12.107l-.067-.013-.1-.027-.127-.04c-.262-.084-.393-.18-.393-.287 0-.062.013-.138.04-.227.031-.093.069-.213.113-.36.049-.147.171-.413.367-.8.2-.391.422-.789.667-1.193a29.846 29.846 0 0 1 .787-1.26l.093-.127.12-.167-.04-.033-.04-.027-.053-.053-.04-.067c0-.111.013-.198.04-.26l.3-.227a.552.552 0 0 1 .273.113c.058.071.1.131.127.18.031.049.089.158.173.327l.133.273c.151.307.293.571.427.793s.311.487.533.793l.36.527.02.04.053.08.473-.053.047.053.16.16a.37.37 0 0 1-.06.147l-.06.08h-.153l-.08.007-.073-.007.053.08c.262.342.411.698.447 1.067zm-1.194-1.494-.093-.147-.08-.113-.48-.707a35.216 35.216 0 0 0-.58-.84 5.503 5.503 0 0 0-.353-.433l-.08.133-.073.107c-.16.258-.331.553-.513.887s-.364.693-.547 1.08l-.1.207-.053.12.153-.013.06-.007 1.273-.12 1.233-.133.233-.02zM12.07 21.28l-.347.24h-.2c-.124 0-.276-.011-.453-.033s-.458-.071-.84-.147c-.382-.076-.88-.256-1.493-.54l-.373-.193.007.1v.527l-.32.133a.319.319 0 0 1-.16-.153l-.027-.073c.04-.093.069-.182.087-.267.018-.089.027-.209.027-.36l-.013-.18-.173-.107a5.195 5.195 0 0 1-.213-.153 4.865 4.865 0 0 1-.207-.187 1.3 1.3 0 0 1-.2-.26.615.615 0 0 1-.087-.307c0-.133.053-.271.16-.413.111-.147.28-.3.507-.46l.113-.08-.027-.58a.378.378 0 0 1-.073-.133l-.04-.107.013-.153.133-.193c.067-.022.118-.038.153-.047a.454.454 0 0 1 .14-.02.172.172 0 0 1 .1.053l.093.44.007.393.187-.127a9.893 9.893 0 0 1 1.367-.793 5.982 5.982 0 0 1 1.26-.427l.313.107a.916.916 0 0 1 .007.127v.127a.45.45 0 0 0-.013.08l-.113.127a1.15 1.15 0 0 0-.14-.007c-.284 0-.638.08-1.06.24-.418.16-.938.429-1.56.807l-.24.16v1.32l-.007.38.153.08.16.073a8.956 8.956 0 0 0 2.066.64c.271.044.527.067.767.067.124 0 .244-.007.36-.02l.127.067.073.233zm-4.173-1.393-.013-.267-.013-.26-.013-.273-.013-.28-.08.06-.1.087c-.142.142-.213.269-.213.38 0 .129.098.273.293.433l.107.087.047.033zm6.409-3.194c-.556.467-.893 1-1.013 1.6l.013.14c.022.124.053.227.093.307.04.076.06.156.06.24l-.093.213-.087.18c-.022.08-.062.176-.12.287-.04.111-.089.262-.147.453a2.042 2.042 0 0 0-.06.247l-.047.187-.06.287a3.013 3.013 0 0 0-.013.26.79.79 0 0 0 .447.44l.027-.067a.985.985 0 0 0 .047-.193l.047-.14.013-.08c.058-.182.098-.327.12-.433l.073-.233c0-.018.002-.033.007-.047a2.6 2.6 0 0 1 .033-.12.428.428 0 0 1 .047-.107l.107-.347c0-.018.009-.044.027-.08l.107-.273a.268.268 0 0 1 .133-.067c.529-.009.967-.16 1.313-.453.364-.28.591-.607.68-.98.04-.431-.113-.756-.46-.973l-.187.053c-.085.04-.196.1-.333.18-.138.093-.222.162-.253.207l-.227.18-.087.08-.033.04-.067.067a.415.415 0 0 1-.093.1 1.082 1.082 0 0 0-.18.2c-.027.044-.109.14-.247.287a.375.375 0 0 1-.213.053.165.165 0 0 1-.047-.107c.062-.462.251-.849.567-1.16l.147-.193c.031-.089.018-.167-.04-.233zm1.24.58c.089-.098.155-.067.2.093.12.427.011.778-.327 1.053a1.437 1.437 0 0 1-1.027.367v-.14a.957.957 0 0 1 .12-.173l.107-.153.073-.12.06-.067.353-.427a.718.718 0 0 1 .107-.12c.04-.04.084-.082.133-.127l.2-.187zm2.757-.886c-.52.147-.918.409-1.193.787-.16.293-.138.562.067.807-.027.196.022.351.147.467.071-.133.164-.2.28-.2.427.12.807.056 1.14-.193.391-.236.662-.536.813-.9 0-.302-.151-.464-.453-.487-.196-.24-.462-.333-.8-.28zm-.42.426c.156-.027.209.027.16.16l-.327.32-.127.127a.716.716 0 0 1-.173.187h-.113c-.031-.391.162-.656.58-.793zm1.1.067c.347.009.424.196.233.56a1.377 1.377 0 0 1-.513.38c-.329.124-.64.156-.933.093l.007-.147c.311-.48.713-.776 1.207-.887zm-1.18 2.02a.965.965 0 0 0-.067.173c0 .04-.004.091-.013.153a.882.882 0 0 0-.027.24l-.013.147-.007.093-.013.093v.073a8.65 8.65 0 0 1-.027.227 2.999 2.999 0 0 0-.007.167v.173l-.013.153.013.573.053.16c.093.098.196.142.307.133a.528.528 0 0 0 .113-.127v-.033a.94.94 0 0 0 .013-.267v-.64l-.013-.067a.936.936 0 0 0-.013-.167l-.013-.54-.02-.033v-.08l-.013-.04v-.113c0-.133-.011-.242-.033-.327a.45.45 0 0 0-.187-.147l-.02.02zm2.695-3.193c-.067 2.311.64 4.18 2.12 5.607.142.027.278.027.407 0 1.036-1.044 1.551-2.431 1.547-4.16-.195-.16-.371-.147-.527.04 0 .04.018.118.053.233.036.111.031.256-.013.433-.04.298-.131.591-.273.88l-.067.107-.467.9c-.284.671-.631.627-1.04-.133l-.02-.04-.213-.32-.02-.067a1.162 1.162 0 0 1-.153-.273 17.383 17.383 0 0 0-.293-.68l-.067-.147-.167-.493-.067-.167-.147-.407-.02-.08-.02-.087-.067-.213-.02-.107-.047-.06c0-.044-.007-.073-.02-.087l-.02-.147-.04-.153a1.146 1.146 0 0 0-.087-.38.312.312 0 0 0-.193-.067l-.06.067z"/>
    </symbol>
    <symbol id="menu" viewBox="0 0 32 32">
      <path d="M6.4 11.733V9.6h19.2v2.133H6.4zm0 5.334h19.2v-2.133H6.4v2.133zm0 5.333h19.2v-2.133H6.4V22.4z"/>
    </symbol>
    <symbol id="close_menu" viewBox="0 0 32 32">
      <path d="M23.733 10.304 22.229 8.8l-5.963 5.963L10.303 8.8l-1.504 1.504 5.963 5.963-5.963 5.963 1.504 1.504 5.963-5.963 5.963 5.963 1.504-1.504-5.963-5.963 5.963-5.963z"/>
    </symbol>
    <symbol id="logo-text-transparent" viewBox="0 0 32 32">
      <path d="M1.333 0C.597 0 0 .597 0 1.333v29.333c0 .736.597 1.333 1.333 1.333h29.333c.736 0 1.333-.597 1.333-1.333V1.333C31.999.597 31.402 0 30.666 0H1.333zm4.191 14.253a3.176 3.176 0 0 0-.12.047c-.04.013-.167.051-.38.113a5.35 5.35 0 0 1-1.447.213h-.173a1.722 1.722 0 0 0-.173-.013c-.351 0-.647-.044-.887-.133-.236-.089-.464-.224-.687-.407s-.333-.438-.333-.767c0-.116.029-.3.087-.553s.233-.522.527-.807a3.373 3.373 0 0 1 1.013-.687c.382-.173.671-.289.867-.347.2-.062.444-.122.733-.18l.18-.033.093.087.027-.14.04-.14.113-.473.027-.073.02-.06.04-.053.033-.013.047-.013.033-.013.04-.007.04.027.127.16c-.04.129-.073.258-.1.387a8.131 8.131 0 0 0-.067.673l-.013.22-.007.16v.167l-.033.033a.222.222 0 0 1-.113.08.46.46 0 0 1-.16-.027.657.657 0 0 1-.14-.1v-.273c0-.093.007-.196.02-.307a5.993 5.993 0 0 0-.733.247 5.717 5.717 0 0 0-.793.4c-.302.173-.56.356-.773.547-.213.187-.4.398-.56.633s-.24.436-.24.6c0 .213.138.364.413.453.28.084.491.14.633.167.147.022.298.033.453.033.213.022.442.033.687.033.533 0 1.04-.056 1.52-.167l.06.027.027.033.02.053.02.033.02.053-.027.107zm1.421-3.746c.276-.378.673-.64 1.193-.787.338-.053.604.04.8.28.302.022.453.184.453.487-.151.364-.422.664-.813.9-.333.249-.713.313-1.14.193-.116 0-.209.067-.28.2-.124-.116-.173-.271-.147-.467-.204-.244-.227-.513-.067-.807zm.933-.2-.327.32-.127.127a.716.716 0 0 1-.173.187h-.113c-.031-.391.162-.656.58-.793.156-.027.209.027.16.16zm1.174.466a1.377 1.377 0 0 1-.513.38c-.329.124-.64.156-.933.093l.007-.147c.311-.48.713-.776 1.207-.887.347.009.424.196.233.56zm-1.48 1.634a.811.811 0 0 1 .067-.173l.02-.02a.454.454 0 0 1 .187.147c.022.084.033.193.033.327v.113l.013.04v.08l.02.033.013.54a.928.928 0 0 1 .013.167l.013.067v.64a.977.977 0 0 1-.013.267v.033a.528.528 0 0 1-.113.127c-.111.009-.213-.036-.307-.133l-.053-.16-.013-.573.013-.153v-.173c0-.044.002-.1.007-.167.009-.067.018-.142.027-.227v-.073l.013-.093.007-.093.013-.147c0-.098.009-.178.027-.24.009-.062.013-.113.013-.153zm5.268-2.174a.445.445 0 0 1 .02-.36c1.049 1.004 1.44 2.3 1.173 3.887-.124.449-.398.74-.82.873-.32-.182-.58-.473-.78-.873l-.153-.247-.073-.18-.087-.18-.18-.333a19.173 19.173 0 0 0-.167-.3l-.193-.4-.18-.2c-.12.36-.187.72-.2 1.08v.067a1.593 1.593 0 0 0-.027.313l-.02.72-.02.087c0 .124-.031.276-.093.453a.38.38 0 0 1-.247.2 1.169 1.169 0 0 1-.273-.267.914.914 0 0 1-.1-.34l.013-.473.047-.38c0-.062.007-.138.02-.227l.02-.133.027-.153.02-.16.047-.36.02-.113.047-.18c.031-.076.084-.247.16-.513.058-.124.096-.231.113-.32.058-.116.14-.22.247-.313a.72.72 0 0 1 .313.227l.2.267.047.073.093.133a.969.969 0 0 1 .173.267l.073.113.22.333c.049.093.118.2.207.32l.133.227c.044.044.098.118.16.22l.247.32.06.107.187.267.087-.313.02-.38c-.013-.244-.02-.398-.02-.46l-.02-.167-.02-.16a1.35 1.35 0 0 1-.047-.227 9.674 9.674 0 0 1-.14-.56l-.087-.36-.047-.107-.113-.453-.02-.113-.047-.153-.02-.093zm4.487-.22c.093-.013.204-.02.333-.02l.093-.027.493.027.193.047.353.353a.317.317 0 0 1 .02.213 2.02 2.02 0 0 1-.587.12.548.548 0 0 1-.187.027l-.073.02-1.16.047-.093.213c-.067.267-.133.518-.2.753.258.049.504.067.74.053h.62a.628.628 0 0 1 .167.047.745.745 0 0 1 .02.3c-.316.129-.693.171-1.133.127l-.593.04c-.236.347-.362.858-.38 1.533.369.053.724-.013 1.067-.2l.207-.107c.08-.058.2-.104.36-.14l.093-.02c.093-.013.204-.02.333-.02a.72.72 0 0 1 .213.3c-1.862 1.391-2.871 1.329-3.027-.187.253-.489.34-.984.26-1.487a.61.61 0 0 1 .373-.167c.209-.316.32-.684.333-1.107a1.594 1.594 0 0 1-.733-.427c.173-.067.362-.1.567-.1l.22-.047.14-.02.173-.04a.492.492 0 0 1 .107-.013.24.24 0 0 0 .093-.02c.111 0 .238-.016.38-.047l.213-.027zm3.047.114.08-.18c.107-.178.227-.189.36-.033.08.124.142.227.187.307s.173.387.387.92c.036.124.08.258.133.4.071.16.133.356.187.587l.127.467c.151.653.233.651.247-.007l.107-.94.08-.4.08-.293c.231-1.102.48-1.36.747-.773l.08.187c.16.409.356.978.587 1.707l.08.293.027.107c.049.338.127.711.233 1.12a4.476 4.476 0 0 0 .54 1.36l.32.453.08.107.207.24c.129.147-.087.111-.647-.107-.56-.213-.998-1.307-1.313-3.28l-.113-.507-.073-.247c-.12-.249-.22-.193-.3.167l-.053.48-.027.187c-.018.16-.031.298-.04.413s-.018.2-.027.253a7.247 7.247 0 0 0-.04.427c-.018.138-.035.262-.053.373l-.027.187a2.227 2.227 0 0 1-.107.453c-.062.196-.147.26-.253.193-.107-.062-.235-.287-.387-.673l-.08-.187a9.55 9.55 0 0 1-.293-.853l-.133-.4-.16-.533-.16-.48c-.129-.333-.235-.349-.32-.047l-.027.153-.053.427-.027.16-.027.213a8.225 8.225 0 0 1-.053.72v.08c0 .124-.009.249-.027.373s-.035.24-.053.347l-.107.4-.027.053c-.071.111-.171.109-.3-.007-.191-.511-.218-1.12-.08-1.827l.087-.727.107-.64.027-.133.027-.107c.107-.444.196-.756.267-.933zm10.382 4.413a.572.572 0 0 1-.247-.1l-.027-.073-.033-.073c-.035-.102-.064-.178-.087-.227s-.062-.124-.12-.227l-.04-.06-.207-.333-.08-.133-.24.013-.193.007c-.164 0-.358.016-.58.047s-.567.078-1.033.14c-.462.062-.933.149-1.413.26l-.007.02-.033.08a.91.91 0 0 0-.1.353c0 .093.04.204.12.333l.06.093a.263.263 0 0 1-.053.167.335.335 0 0 1-.12.107l-.067-.013-.1-.027-.127-.04c-.262-.084-.393-.18-.393-.287 0-.062.013-.138.04-.227.031-.093.069-.213.113-.36.049-.147.171-.413.367-.8.2-.391.422-.789.667-1.193a29.846 29.846 0 0 1 .787-1.26l.093-.127.12-.167-.04-.033-.04-.027-.053-.053-.04-.067c0-.111.013-.198.04-.26l.3-.227a.552.552 0 0 1 .273.113c.058.071.1.131.127.18.031.049.089.158.173.327l.133.273c.151.307.293.571.427.793s.311.487.533.793l.36.527.02.04.053.08.473-.053.047.053.16.16a.37.37 0 0 1-.06.147l-.06.08h-.153l-.08.007-.073-.007.053.08c.262.342.411.698.447 1.067l-.087.113zm-1.2-1.753-.08-.113-.48-.707a35.216 35.216 0 0 0-.58-.84 5.503 5.503 0 0 0-.353-.433l-.08.133-.073.107c-.16.258-.331.553-.513.887s-.364.693-.547 1.08l-.1.207-.053.12 1.487-.14 1.233-.133.233-.02-.093-.147zM11.724 21.52h-.2c-.124 0-.276-.011-.453-.033s-.458-.071-.84-.147c-.382-.076-.88-.256-1.493-.54l-.373-.193.007.1v.527l-.32.133a.319.319 0 0 1-.16-.153l-.027-.073c.04-.093.069-.182.087-.267.018-.089.027-.209.027-.36l-.013-.18-.173-.107a5.195 5.195 0 0 1-.213-.153 4.865 4.865 0 0 1-.207-.187 1.3 1.3 0 0 1-.2-.26.615.615 0 0 1-.087-.307c0-.133.053-.271.16-.413.111-.147.28-.3.507-.46l.113-.08-.027-.58a.378.378 0 0 1-.073-.133l-.04-.107.013-.153.133-.193c.067-.022.118-.038.153-.047a.454.454 0 0 1 .14-.02.172.172 0 0 1 .1.053l.093.44.007.393.187-.127a9.893 9.893 0 0 1 1.367-.793 5.982 5.982 0 0 1 1.26-.427l.313.107a.916.916 0 0 1 .007.127v.127a.45.45 0 0 0-.013.08l-.113.127a1.15 1.15 0 0 0-.14-.007c-.284 0-.638.08-1.06.24-.418.16-.938.429-1.56.807l-.24.16v1.32l-.007.38.153.08.16.073a8.956 8.956 0 0 0 2.066.64c.271.044.527.067.767.067.124 0 .244-.007.36-.02l.127.067.073.233-.347.24zm-3.84-1.9-.013-.26-.013-.273-.013-.28-.08.06-.1.087c-.142.142-.213.269-.213.38 0 .129.098.273.293.433l.107.087.047.033-.013-.267zm5.408-1.327c.12-.6.458-1.133 1.013-1.6a.22.22 0 0 1 .04.233l-.147.193a1.942 1.942 0 0 0-.567 1.16.16.16 0 0 0 .047.107.384.384 0 0 0 .213-.053c.138-.147.22-.242.247-.287.049-.071.109-.138.18-.2a.415.415 0 0 0 .093-.1l.067-.067.033-.04.087-.08.227-.18c.031-.044.115-.113.253-.207.138-.08.249-.14.333-.18l.187-.053c.347.218.5.542.46.973-.089.373-.316.7-.68.98-.347.293-.785.444-1.313.453a.268.268 0 0 0-.133.067l-.107.273a.204.204 0 0 0-.027.08l-.107.347a.41.41 0 0 0-.047.107 2.6 2.6 0 0 0-.033.12.133.133 0 0 0-.007.047l-.073.233a4.507 4.507 0 0 1-.12.433l-.013.08-.047.14a.968.968 0 0 1-.047.193l-.027.067a.79.79 0 0 1-.447-.44c0-.071.004-.158.013-.26l.06-.287.047-.187c.013-.076.033-.158.06-.247.058-.191.107-.342.147-.453.058-.111.098-.207.12-.287l.087-.18.093-.213a.508.508 0 0 0-.06-.24 1.13 1.13 0 0 1-.093-.307l-.013-.14zm2.454-.926c.12.427.011.778-.327 1.053a1.437 1.437 0 0 1-1.027.367v-.14a.957.957 0 0 1 .12-.173l.107-.153.073-.12.06-.067.353-.427a.718.718 0 0 1 .107-.12c.04-.04.084-.082.133-.127l.2-.187c.089-.098.155-.067.2.093zm1.364-.194c.276-.378.673-.64 1.193-.787.338-.053.604.04.8.28.302.022.453.184.453.487-.151.364-.422.664-.813.9-.333.249-.713.313-1.14.193-.116 0-.209.067-.28.2-.124-.116-.173-.271-.147-.467-.204-.244-.227-.513-.067-.807zm.933-.2-.327.32-.127.127a.716.716 0 0 1-.173.187h-.113c-.031-.391.162-.656.58-.793.156-.027.209.027.16.16zm1.173.467a1.377 1.377 0 0 1-.513.38c-.329.124-.64.156-.933.093l.007-.147c.311-.48.713-.776 1.207-.887.347.009.424.196.233.56zm-1.48 1.633a.811.811 0 0 1 .067-.173l.02-.02a.454.454 0 0 1 .187.147c.022.084.033.193.033.327v.113l.013.04v.08l.02.033.013.54a.928.928 0 0 1 .013.167l.013.067v.64a.977.977 0 0 1-.013.267v.033a.528.528 0 0 1-.113.127c-.111.009-.213-.036-.307-.133l-.053-.16-.013-.573.013-.153v-.173c0-.044.002-.1.007-.167.009-.067.018-.142.027-.227v-.073l.013-.093.007-.093.013-.147c0-.098.009-.178.027-.24.009-.062.013-.113.013-.153zm4.882 2.24c-1.48-1.427-2.187-3.296-2.12-5.607l.06-.067c.071 0 .136.022.193.067.045.098.073.224.087.38l.04.153.02.147c.013.013.02.042.02.087l.047.06.02.107.067.213.02.087.02.08.147.407.067.167.167.493.067.147c.085.182.182.409.293.68.031.084.082.176.153.273l.02.067.213.32.02.04c.409.76.756.804 1.04.133l.467-.9.067-.107c.142-.289.233-.582.273-.88.045-.178.049-.322.013-.433a1.033 1.033 0 0 1-.053-.233c.156-.187.331-.2.527-.04.005 1.729-.511 3.116-1.547 4.16a1.032 1.032 0 0 1-.407 0zM1.333 2c0-.368.298-.667.667-.667h1.333c.368 0 .667.298.667.667v1.333A.667.667 0 0 1 3.333 4H2a.667.667 0 0 1-.667-.667V2zM2 28h1.333c.368 0 .667.299.667.667V30a.667.667 0 0 1-.667.667H2A.667.667 0 0 1 1.333 30v-1.333c0-.368.298-.667.667-.667zM6.667 2c0-.368.298-.667.667-.667h1.333c.368 0 .667.298.667.667v1.333A.667.667 0 0 1 8.667 4H7.334a.667.667 0 0 1-.667-.667V2zm.666 26h1.333c.368 0 .667.299.667.667V30a.667.667 0 0 1-.667.667H7.333A.667.667 0 0 1 6.666 30v-1.333c0-.368.298-.667.667-.667zM12 2c0-.368.298-.667.667-.667H14c.368 0 .667.298.667.667v1.333A.667.667 0 0 1 14 4h-1.333A.667.667 0 0 1 12 3.333V2zm.667 26H14c.368 0 .667.299.667.667V30a.667.667 0 0 1-.667.667h-1.333A.667.667 0 0 1 12 30v-1.333c0-.368.298-.667.667-.667zm4.666-26c0-.368.299-.667.667-.667h1.333c.368 0 .667.298.667.667v1.333a.667.667 0 0 1-.667.667H18a.667.667 0 0 1-.667-.667V2zM18 28h1.333c.368 0 .667.299.667.667V30a.667.667 0 0 1-.667.667H18a.667.667 0 0 1-.667-.667v-1.333c0-.368.299-.667.667-.667zm4.667-26c0-.368.299-.667.667-.667h1.333c.368 0 .667.298.667.667v1.333a.667.667 0 0 1-.667.667h-1.333a.667.667 0 0 1-.667-.667V2zm.666 26h1.333c.368 0 .667.299.667.667V30a.667.667 0 0 1-.667.667h-1.333a.667.667 0 0 1-.667-.667v-1.333c0-.368.299-.667.667-.667zM28 2c0-.368.299-.667.667-.667H30c.368 0 .667.298.667.667v1.333A.667.667 0 0 1 30 4h-1.333A.667.667 0 0 1 28 3.333V2zm.667 26H30c.368 0 .667.299.667.667V30a.667.667 0 0 1-.667.667h-1.333A.667.667 0 0 1 28 30v-1.333c0-.368.299-.667.667-.667z"/>
    </symbol>
    <symbol id="logo-bg-transparent" viewBox="0 0 32 32">
      <path d="M1.333 2c0-.368.298-.667.667-.667h1.333c.368 0 .667.298.667.667v1.333A.667.667 0 0 1 3.333 4H2a.667.667 0 0 1-.667-.667V2zm0 26.667c0-.368.298-.667.667-.667h1.333c.368 0 .667.299.667.667V30a.667.667 0 0 1-.667.667H2A.667.667 0 0 1 1.333 30v-1.333zm6-27.334A.667.667 0 0 0 6.666 2v1.333c0 .368.298.667.667.667h1.333a.667.667 0 0 0 .667-.667V2a.667.667 0 0 0-.667-.667H7.333zm-.666 27.334c0-.368.298-.667.667-.667h1.333c.368 0 .667.299.667.667V30a.667.667 0 0 1-.667.667H7.334A.667.667 0 0 1 6.667 30v-1.333zm6-27.334A.667.667 0 0 0 12 2v1.333c0 .368.298.667.667.667H14a.667.667 0 0 0 .667-.667V2A.667.667 0 0 0 14 1.333h-1.333zM12 28.667c0-.368.298-.667.667-.667H14c.368 0 .667.299.667.667V30a.667.667 0 0 1-.667.667h-1.333A.667.667 0 0 1 12 30v-1.333zm6-27.334a.667.667 0 0 0-.667.667v1.333c0 .368.298.667.667.667h1.333A.667.667 0 0 0 20 3.333V2a.667.667 0 0 0-.667-.667H18zm-.667 27.334c0-.368.298-.667.667-.667h1.333c.368 0 .667.299.667.667V30a.667.667 0 0 1-.667.667H18a.667.667 0 0 1-.667-.667v-1.333zm6-27.334a.667.667 0 0 0-.667.667v1.333c0 .368.298.667.667.667h1.333a.667.667 0 0 0 .667-.667V2a.667.667 0 0 0-.667-.667h-1.333zm-.666 27.334c0-.368.298-.667.667-.667h1.333c.368 0 .667.299.667.667V30a.667.667 0 0 1-.667.667h-1.333a.667.667 0 0 1-.667-.667v-1.333zm6-27.334A.667.667 0 0 0 28 2v1.333c0 .368.298.667.667.667H30a.667.667 0 0 0 .667-.667V2A.667.667 0 0 0 30 1.333h-1.333zM28 28.667c0-.368.298-.667.667-.667H30c.368 0 .667.299.667.667V30a.667.667 0 0 1-.667.667h-1.333A.667.667 0 0 1 28 30v-1.333zM5.524 14.253l.027-.107-.02-.053-.02-.033-.02-.053-.027-.033-.06-.027c-.48.111-.987.167-1.52.167-.244 0-.473-.011-.687-.033-.156 0-.307-.011-.453-.033a6.65 6.65 0 0 1-.633-.167c-.276-.089-.413-.24-.413-.453 0-.164.08-.364.24-.6s.347-.447.56-.633a4.58 4.58 0 0 1 .773-.547 5.773 5.773 0 0 1 1.526-.647c-.013.111-.02.213-.02.307v.273a.657.657 0 0 0 .14.1.46.46 0 0 0 .16.027.222.222 0 0 0 .113-.08l.033-.033v-.167l.007-.16.013-.22a7.32 7.32 0 0 1 .067-.673c.027-.129.06-.258.1-.387l-.127-.16-.04-.027-.04.007-.033.013-.047.013-.033.013-.04.053-.02.06-.027.073-.113.473-.04.14-.027.14-.093-.087-.18.033a7.513 7.513 0 0 0-.733.18 7.385 7.385 0 0 0-.867.347c-.382.169-.72.398-1.013.687-.293.284-.469.553-.527.807s-.087.438-.087.553c0 .329.111.584.333.767s.451.318.687.407c.24.089.536.133.887.133.036 0 .093.004.173.013h.173a5.35 5.35 0 0 0 1.447-.213c.213-.062.34-.1.38-.113l.12-.047zm1.421-3.746c.276-.378.673-.64 1.193-.787.338-.053.604.04.8.28.302.022.453.184.453.487-.151.364-.422.664-.813.9-.333.249-.713.313-1.14.193-.116 0-.209.067-.28.2-.124-.116-.173-.271-.147-.467-.204-.244-.227-.513-.067-.807zm.933-.2c.049-.133-.004-.187-.16-.16-.418.138-.611.402-.58.793h.113a.7.7 0 0 0 .173-.187l.127-.127.327-.32zm1.174.466c.191-.364.113-.551-.233-.56-.493.111-.896.407-1.207.887l-.007.147c.293.062.604.031.933-.093.187-.076.358-.202.513-.38zm-1.48 1.634a.811.811 0 0 1 .067-.173l.02-.02a.454.454 0 0 1 .187.147c.022.084.033.193.033.327v.113l.013.04v.08l.02.033.013.54a.928.928 0 0 1 .013.167l.013.067v.64a.977.977 0 0 1-.013.267v.033a.528.528 0 0 1-.113.127c-.111.009-.213-.036-.307-.133l-.053-.16-.013-.573.013-.153v-.173c0-.044.002-.1.007-.167.009-.067.018-.142.027-.227v-.073l.013-.093.007-.093.013-.147c0-.098.009-.178.027-.24.009-.062.013-.113.013-.153zm5.268-2.174a.445.445 0 0 1 .02-.36c1.049 1.004 1.44 2.3 1.173 3.887-.124.449-.398.74-.82.873-.32-.182-.58-.473-.78-.873l-.153-.247-.073-.18-.087-.18-.18-.333a19.173 19.173 0 0 0-.167-.3l-.193-.4-.18-.2c-.12.36-.187.72-.2 1.08v.067a1.593 1.593 0 0 0-.027.313l-.02.72-.02.087c0 .124-.031.276-.093.453a.38.38 0 0 1-.247.2 1.169 1.169 0 0 1-.273-.267.914.914 0 0 1-.1-.34l.013-.473.047-.38c0-.062.007-.138.02-.227l.02-.133.027-.153.02-.16.047-.36.02-.113.047-.18c.031-.076.084-.247.16-.513.058-.124.096-.231.113-.32.058-.116.14-.22.247-.313a.72.72 0 0 1 .313.227l.2.267.047.073.093.133a.969.969 0 0 1 .173.267l.073.113.22.333c.049.093.118.2.207.32l.133.227c.044.044.098.118.16.22l.247.32.06.107.187.267.087-.313.02-.38c-.013-.244-.02-.398-.02-.46l-.02-.167-.02-.16a1.35 1.35 0 0 1-.047-.227 9.674 9.674 0 0 1-.14-.56l-.087-.36-.047-.107-.113-.453-.02-.113-.047-.153-.02-.093zm4.487-.22c.093-.013.204-.02.333-.02l.093-.027.493.027.193.047.353.353a.317.317 0 0 1 .02.213 2.02 2.02 0 0 1-.587.12.548.548 0 0 1-.187.027l-.073.02-1.16.047-.093.213c-.067.267-.133.518-.2.753.258.049.504.067.74.053h.62a.64.64 0 0 1 .167.047.745.745 0 0 1 .02.3c-.316.129-.693.171-1.133.127l-.593.04c-.236.347-.362.858-.38 1.533.369.053.724-.013 1.067-.2l.207-.107c.08-.058.2-.104.36-.14l.093-.02c.093-.013.204-.02.333-.02a.72.72 0 0 1 .213.3c-1.862 1.391-2.871 1.329-3.027-.187.253-.489.34-.984.26-1.487a.61.61 0 0 1 .373-.167c.209-.316.32-.684.333-1.107a1.594 1.594 0 0 1-.733-.427c.173-.067.362-.1.567-.1l.22-.047.14-.02.173-.04a.486.486 0 0 1 .107-.013.24.24 0 0 0 .093-.02c.111 0 .238-.016.38-.047l.213-.027zm3.047.114.08-.18c.107-.178.227-.189.36-.033.08.124.142.227.187.307s.173.387.387.92c.036.124.08.258.133.4.071.16.133.356.187.587l.127.467c.151.653.233.651.247-.007l.107-.94.08-.4.08-.293c.231-1.102.48-1.36.747-.773l.08.187c.16.409.356.978.587 1.707l.08.293.027.107c.049.338.127.711.233 1.12a4.476 4.476 0 0 0 .54 1.36l.32.453.08.107.207.24c.129.147-.087.111-.647-.107-.56-.213-.998-1.307-1.313-3.28l-.113-.507-.073-.247c-.12-.249-.22-.193-.3.167l-.053.48-.027.187c-.018.16-.031.298-.04.413s-.018.2-.027.253a7.247 7.247 0 0 0-.04.427c-.018.138-.035.262-.053.373l-.027.187a2.227 2.227 0 0 1-.107.453c-.062.196-.147.26-.253.193-.107-.062-.235-.287-.387-.673l-.08-.187a9.55 9.55 0 0 1-.293-.853l-.133-.4-.16-.533-.16-.48c-.129-.333-.235-.349-.32-.047l-.027.153-.053.427-.027.16-.027.213a8.225 8.225 0 0 1-.053.72v.08c0 .124-.009.249-.027.373s-.035.24-.053.347l-.107.4-.027.053c-.071.111-.171.109-.3-.007-.191-.511-.218-1.12-.08-1.827l.087-.727.107-.64.027-.133.027-.107c.107-.444.196-.756.267-.933zm10.382 4.413.087-.113c-.036-.369-.184-.724-.447-1.067l-.053-.08.073.007.08-.007h.153l.06-.08a.364.364 0 0 0 .06-.147l-.16-.16-.047-.053-.473.053-.053-.08-.02-.04-.36-.527c-.222-.307-.4-.571-.533-.793s-.276-.487-.427-.793l-.133-.273a4.577 4.577 0 0 0-.173-.327 1.262 1.262 0 0 0-.127-.18.552.552 0 0 0-.273-.113l-.3.227a.672.672 0 0 0-.04.26l.04.067.053.053.04.027.04.033-.12.167-.093.127-.267.413c-.102.156-.276.438-.52.847-.244.404-.467.802-.667 1.193-.196.387-.318.653-.367.8a12.44 12.44 0 0 1-.113.36.799.799 0 0 0-.04.227c0 .107.131.202.393.287l.127.04.1.027.067.013a.342.342 0 0 0 .12-.107.255.255 0 0 0 .053-.167l-.06-.093a.663.663 0 0 1-.12-.333c0-.089.033-.207.1-.353l.033-.08.007-.02c.48-.111.951-.198 1.413-.26.467-.062.811-.109 1.033-.14s.416-.047.58-.047l.193-.007.24-.013.08.133.207.333.04.06c.058.102.098.178.12.227s.051.124.087.227l.033.073.027.073a.572.572 0 0 0 .247.1zm-1.2-1.753.093.147-.233.02-1.233.133-1.487.14.053-.12.1-.207a19.304 19.304 0 0 1 1.06-1.967l.073-.107.08-.133c.16.182.278.327.353.433.076.102.269.382.58.84l.48.707.08.113zM11.723 21.52l.347-.24-.073-.233-.127-.067a3.23 3.23 0 0 1-.36.02c-.24 0-.496-.022-.767-.067-.267-.044-.584-.12-.953-.227s-.74-.244-1.113-.413l-.16-.073-.153-.08.007-.38v-1.32l.24-.16c.622-.378 1.142-.647 1.56-.807.422-.16.776-.24 1.06-.24.062 0 .109.002.14.007l.113-.127a.45.45 0 0 1 .013-.08v-.127a.78.78 0 0 0-.007-.127l-.313-.107a5.926 5.926 0 0 0-1.26.427c-.404.187-.86.451-1.367.793l-.187.127-.007-.393-.093-.44a.167.167 0 0 0-.1-.053c-.053 0-.1.007-.14.02a1.824 1.824 0 0 0-.153.047l-.133.193-.013.153.04.107a.385.385 0 0 0 .073.133l.027.58-.113.08c-.227.16-.396.313-.507.46a.691.691 0 0 0-.16.413.62.62 0 0 0 .087.307 1.3 1.3 0 0 0 .2.26c.08.076.149.138.207.187.058.044.129.096.213.153l.173.107.013.18c0 .151-.009.271-.027.36a1.476 1.476 0 0 1-.087.267l.027.073a.311.311 0 0 0 .16.153l.32-.133v-.527l-.007-.1.373.193c.613.284 1.111.464 1.493.54s.662.124.84.147c.178.022.329.033.453.033h.2zm-3.84-1.9.013.267-.047-.033-.107-.087c-.196-.16-.293-.304-.293-.433 0-.111.071-.238.213-.38l.1-.087.08-.06.013.28.013.273.013.26zm5.409-1.327c.12-.6.458-1.133 1.013-1.6a.22.22 0 0 1 .04.233l-.147.193a1.953 1.953 0 0 0-.567 1.16c0 .036.016.071.047.107a.384.384 0 0 0 .213-.053c.138-.147.22-.242.247-.287.049-.071.109-.138.18-.2a.415.415 0 0 0 .093-.1l.067-.067.033-.04.087-.08.227-.18c.031-.044.116-.113.253-.207.138-.08.249-.14.333-.18l.187-.053c.347.218.5.542.46.973-.089.373-.315.7-.68.98-.347.293-.784.444-1.313.453a.268.268 0 0 0-.133.067l-.107.273a.204.204 0 0 0-.027.08l-.107.347a.45.45 0 0 0-.047.107 2.6 2.6 0 0 0-.033.12.16.16 0 0 0-.007.047l-.073.233a4.507 4.507 0 0 1-.12.433l-.013.08-.047.14a.898.898 0 0 1-.047.193l-.027.067a.79.79 0 0 1-.447-.44c0-.071.004-.158.013-.26l.06-.287.047-.187c.013-.076.033-.158.06-.247.058-.191.107-.342.147-.453.058-.111.098-.207.12-.287l.087-.18.093-.213a.508.508 0 0 0-.06-.24 1.13 1.13 0 0 1-.093-.307l-.013-.14zm2.454-.926c-.044-.16-.111-.191-.2-.093l-.2.187a3.389 3.389 0 0 0-.133.127.765.765 0 0 0-.107.12l-.353.427-.06.067-.073.12-.107.153a.957.957 0 0 0-.12.173v.14c.378.018.72-.104 1.027-.367.338-.276.447-.627.327-1.053zm1.364-.194c.275-.378.673-.64 1.193-.787.338-.053.604.04.8.28.302.022.453.184.453.487-.151.364-.422.664-.813.9-.333.249-.713.313-1.14.193-.116 0-.209.067-.28.2-.125-.116-.173-.271-.147-.467-.205-.244-.227-.513-.067-.807zm.933-.2c.049-.133-.005-.187-.16-.16-.418.138-.611.402-.58.793h.113a.7.7 0 0 0 .173-.187l.127-.127.327-.32zm1.173.467c.191-.364.113-.551-.233-.56-.493.111-.896.407-1.207.887l-.007.147c.293.062.604.031.933-.093.187-.076.358-.202.513-.38zm-1.48 1.633a.811.811 0 0 1 .067-.173l.02-.02a.454.454 0 0 1 .187.147c.022.084.033.193.033.327v.113l.013.04v.08l.02.033.013.54a.928.928 0 0 1 .013.167l.013.067v.64a.977.977 0 0 1-.013.267v.033a.528.528 0 0 1-.113.127c-.111.009-.213-.036-.307-.133l-.053-.16-.013-.573.013-.153v-.173c0-.044.002-.1.007-.167.009-.067.018-.142.027-.227v-.073l.013-.093.007-.093.013-.147c0-.098.009-.178.027-.24.009-.062.013-.113.013-.153zm4.882 2.24c-1.48-1.427-2.187-3.296-2.12-5.607l.06-.067c.071 0 .136.022.193.067.045.098.073.224.087.38l.04.153.02.147c.013.013.02.042.02.087l.047.06.02.107.067.213.02.087.02.08.147.407.067.167.167.493.067.147c.085.182.182.409.293.68.031.084.082.176.153.273l.02.067.213.32.02.04c.409.76.756.804 1.04.133l.467-.9.067-.107c.142-.289.233-.582.273-.88.045-.178.049-.322.013-.433a1.033 1.033 0 0 1-.053-.233c.156-.187.331-.2.527-.04.005 1.729-.511 3.116-1.547 4.16a1.032 1.032 0 0 1-.407 0z"/>
    </symbol>
  </defs>
</svg>