<svg xmlns="http://www.w3.org/2000/svg" x="56.4" width="64.45" height="17" class="letters-container">
  <g data-svg-origin="0 0">
    <path d="M23.02 9.22a3.64 3.64 0 0 1 3.43-2.42 3.64 3.64 0 0 1 3.42 2.42h-6.85Zm3.43-5.34a6.56 6.56 0 0 0-6.56 6.56A6.56 6.56 0 0 0 26.45 17a6.56 6.56 0 0 0 6.09-4.12h-3.39a3.63 3.63 0 0 1-2.7 1.21 3.64 3.64 0 0 1-3.33-2.18h9.72a6.56 6.56 0 0 0 .17-1.46 6.56 6.56 0 0 0-6.56-6.56M14.13 3.93A5.72 5.72 0 0 0 9.9 5.78a5.29 5.29 0 0 0-4-1.85 5.21 5.21 0 0 0-3 .94v-1H-.02v13H2.9V9.45a2.66 2.66 0 0 1 2.66-2.66 2.66 2.66 0 0 1 2.66 2.66v7.42h2.92V9.45a2.66 2.66 0 0 1 2.66-2.66 2.66 2.66 0 0 1 2.66 2.66v7.42h2.92V9.14a5.23 5.23 0 0 0-5.23-5.23M40.08 14.09a3.64 3.64 0 0 1-3.64-3.64 3.64 3.64 0 0 1 3.64-3.64 3.64 3.64 0 0 1 3.64 3.64 3.64 3.64 0 0 1-3.64 3.64M43.72 5a6.52 6.52 0 0 0-3.64-1.1 6.56 6.56 0 0 0-6.56 6.56 6.56 6.56 0 0 0 6.56 6.56 6.53 6.53 0 0 0 3.64-1.1v1h2.91V0h-2.92v5ZM47.82 0h2.92v2.92h-2.92zM57.89 14.09a3.64 3.64 0 0 1-3.64-3.64 3.64 3.64 0 0 1 3.64-3.64 3.64 3.64 0 0 1 3.64 3.64 3.64 3.64 0 0 1-3.64 3.64M61.53 3.9V5a6.52 6.52 0 0 0-3.64-1.1 6.56 6.56 0 0 0-6.56 6.56 6.56 6.56 0 0 0 6.56 6.56 6.52 6.52 0 0 0 3.64-1.1v1h2.92v-13h-2.92ZM47.82 3.89h2.92v12.99h-2.92z" class="logo-letter"/>
  </g>
</svg>